#tb 0: 1001/30000
#media_type 0: video
#codec_id 0: rawvideo
#dimensions 0: 640x480
#sar 0: 0/1
0,          0,          0,        1,   921600, 0x27e6001e
0,          1,          1,        1,   921600, 0x7c0a92bc
0,          2,          2,        1,   921600, 0x4d2be42c
0,          3,          3,        1,   921600, 0x58ddd0be
